<svg width="24" height="24" viewBox="0 0 24 24" fill="none" xmlns="http://www.w3.org/2000/svg">
<path opacity="0.1" fill-rule="evenodd" clip-rule="evenodd" d="M0 12C0 5.37258 5.37258 0 12 0C18.6274 0 24 5.37258 24 12C24 18.6274 18.6274 24 12 24C5.37258 24 0 18.6274 0 12Z" fill="#0B0D17"/>
<path d="M8.65936 7.41135C8.64171 6.6102 8.0688 6 7.13849 6C6.20818 6 5.59998 6.6102 5.59998 7.41135C5.59998 8.1959 6.1902 8.82367 7.10319 8.82367H7.12057C8.0688 8.82367 8.65936 8.1959 8.65936 7.41135Z" fill="#969BAB"/>
<path d="M8.48025 9.93896H5.76079V18.1098H8.48025V9.93896Z" fill="#969BAB"/>
<path d="M15.1566 9.74707C16.9461 9.74707 18.2877 10.9151 18.2877 13.4249L18.2876 18.1098H15.5682V13.7384C15.5682 12.6404 15.1747 11.8911 14.1902 11.8911C13.4389 11.8911 12.9914 12.3962 12.7949 12.8841C12.723 13.0589 12.7053 13.3025 12.7053 13.5467V18.11H9.98553C9.98553 18.11 10.0214 10.7059 9.98553 9.93915H12.7053V11.0965C13.0663 10.5401 13.7127 9.74707 15.1566 9.74707Z" fill="#969BAB"/>
</svg>
